<svg width="18" height="24" viewBox="0 0 18 24" fill="none" xmlns="http://www.w3.org/2000/svg">
<path fill-rule="evenodd" clip-rule="evenodd" d="M18 23.1429V9C18 7.8181 17.7672 6.64778 17.3149 5.55585C16.8626 4.46392 16.1997 3.47177 15.364 2.63604C14.5282 1.80031 13.5361 1.13738 12.4442 0.685084C11.3522 0.232792 10.1819 0 9 0C7.8181 0 6.64778 0.232792 5.55585 0.685084C4.46392 1.13738 3.47177 1.80031 2.63604 2.63604C1.80031 3.47177 1.13738 4.46392 0.685084 5.55585C0.232792 6.64778 -1.76116e-08 7.8181 0 9V23.1429H3.636L5.45529 21.3249L7.27328 23.1429H10.7267L12.5447 21.3249L14.364 23.1429H18ZM15.4286 9C15.4286 7.29504 14.7513 5.6599 13.5457 4.45431C12.3401 3.24872 10.705 2.57143 9 2.57143C7.29504 2.57143 5.6599 3.24872 4.45431 4.45431C3.24872 5.6599 2.57143 7.29504 2.57143 9V20.5714L5.45529 17.6876L9 21.2336L12.5447 17.6876L15.4286 20.5714V9Z" fill="#12FFF1"/>
</svg>
